<?xml version="1.0" standalone="no"?><!DOCTYPE svg PUBLIC "-//W3C//DTD SVG 1.1//EN" "http://www.w3.org/Graphics/SVG/1.1/DTD/svg11.dtd"><svg t="1651893994292" class="icon" viewBox="0 0 1024 1024" version="1.1" xmlns="http://www.w3.org/2000/svg" p-id="5490" xmlns:xlink="http://www.w3.org/1999/xlink" width="16" height="16"><defs><style type="text/css">@font-face { font-family: feedback-iconfont; src: url("//at.alicdn.com/t/font_1031158_u69w8yhxdu.woff2?t=1630033759944") format("woff2"), url("//at.alicdn.com/t/font_1031158_u69w8yhxdu.woff?t=1630033759944") format("woff"), url("//at.alicdn.com/t/font_1031158_u69w8yhxdu.ttf?t=1630033759944") format("truetype"); }
</style></defs><path d="M480 450.133333m-426.666667 0a426.666667 426.666667 0 1 0 853.333334 0 426.666667 426.666667 0 1 0-853.333334 0Z" fill="#FFE500" p-id="5491"></path><path d="M480 23.466667c-234.666667 0-426.666667 192-426.666667 426.666666s192 426.666667 426.666667 426.666667 426.666667-192 426.666667-426.666667-189.866667-426.666667-426.666667-426.666666z m0 789.333333C264.533333 812.8 91.733333 640 91.733333 424.533333S266.666667 36.266667 480 36.266667s388.266667 174.933333 388.266667 388.266666c2.133333 215.466667-172.8 388.266667-388.266667 388.266667z" fill="#EBCB00" p-id="5492"></path><path d="M352 108.8a128 32 0 1 0 256 0 128 32 0 1 0-256 0Z" fill="#FFF48C" p-id="5493"></path><path d="M138.666667 968.533333a341.333333 32 0 1 0 682.666666 0 341.333333 32 0 1 0-682.666666 0Z" fill="#45413C" p-id="5494"></path><path d="M682.666667 556.8a53.333333 32 0 1 0 106.666666 0 53.333333 32 0 1 0-106.666666 0Z" fill="#FFAA54" p-id="5495"></path><path d="M170.666667 556.8a53.333333 32 0 1 0 106.666666 0 53.333333 32 0 1 0-106.666666 0Z" fill="#FFAA54" p-id="5496"></path><path d="M352 620.8c-6.4 0-10.666667 2.133333-14.933333 6.4-4.266667 4.266667-6.4 10.666667-4.266667 17.066667 10.666667 72.533333 74.666667 125.866667 149.333333 125.866666s138.666667-53.333333 149.333334-125.866666c0-6.4 0-10.666667-4.266667-17.066667-4.266667-4.266667-8.533333-6.4-14.933333-6.4H352z" fill="#FFB0CA" p-id="5497"></path><path d="M599.466667 714.666667c-29.866667-17.066667-72.533333-27.733333-119.466667-27.733334-46.933333 0-89.6 10.666667-119.466667 27.733334 27.733333 36.266667 70.4 57.6 119.466667 57.6s91.733333-23.466667 119.466667-57.6z" fill="#FF87AF" p-id="5498"></path><path d="M970.666667 706.133333c0 59.733333-46.933333 106.666667-106.666667 106.666667s-106.666667-46.933333-106.666667-106.666667 106.666667-234.666667 106.666667-234.666666 106.666667 177.066667 106.666667 234.666666z" fill="#00B8F0" p-id="5499"></path><path d="M864 759.466667c-49.066667 0-89.6-34.133333-102.4-78.933334-2.133333 10.666667-4.266667 19.2-4.266667 25.6 0 59.733333 46.933333 106.666667 106.666667 106.666667s106.666667-46.933333 106.666667-106.666667c0-6.4-2.133333-14.933333-4.266667-25.6-12.8 46.933333-53.333333 78.933333-102.4 78.933334z" fill="#009FD9" p-id="5500"></path></svg>