<?xml version="1.0" standalone="no"?><!DOCTYPE svg PUBLIC "-//W3C//DTD SVG 1.1//EN" "http://www.w3.org/Graphics/SVG/1.1/DTD/svg11.dtd"><svg t="1651894017682" class="icon" viewBox="0 0 1024 1024" version="1.1" xmlns="http://www.w3.org/2000/svg" p-id="5654" xmlns:xlink="http://www.w3.org/1999/xlink" width="16" height="16"><defs><style type="text/css">@font-face { font-family: feedback-iconfont; src: url("//at.alicdn.com/t/font_1031158_u69w8yhxdu.woff2?t=1630033759944") format("woff2"), url("//at.alicdn.com/t/font_1031158_u69w8yhxdu.woff?t=1630033759944") format("woff"), url("//at.alicdn.com/t/font_1031158_u69w8yhxdu.ttf?t=1630033759944") format("truetype"); }
</style></defs><path d="M192 957.866667a341.333333 32 0 1 0 682.666667 0 341.333333 32 0 1 0-682.666667 0Z" fill="#45413C" p-id="5655"></path><path d="M512 460.8m-426.666667 0a426.666667 426.666667 0 1 0 853.333334 0 426.666667 426.666667 0 1 0-853.333334 0Z" fill="#FFE500" p-id="5656"></path><path d="M512 34.133333c-234.666667 0-426.666667 192-426.666667 426.666667s192 426.666667 426.666667 426.666667 426.666667-192 426.666667-426.666667-192-426.666667-426.666667-426.666667z m0 789.333334c-215.466667 0-388.266667-174.933333-388.266667-390.4 0-213.333333 172.8-388.266667 388.266667-388.266667s388.266667 174.933333 388.266667 388.266667c0 215.466667-172.8 390.4-388.266667 390.4z" fill="#EBCB00" p-id="5657"></path><path d="M384 119.466667a128 32 0 1 0 256 0 128 32 0 1 0-256 0Z" fill="#FFF48C" p-id="5658"></path><path d="M670.248525 287.298565a32 53.333333 44.999 1 0 75.423407-75.426039 32 53.333333 44.999 1 0-75.423407 75.426039Z" fill="#FFAA54" p-id="5659"></path><path d="M262.967615 694.829676a32 53.333333 44.999 1 0 75.423407-75.42604 32 53.333333 44.999 1 0-75.423407 75.42604Z" fill="#FFAA54" p-id="5660"></path><path d="M759.466667 710.4c117.333333-117.333333 134.4-294.4 42.666666-413.866667-6.4-6.4-14.933333-10.666667-23.466666-10.666666-8.533333 0-19.2 6.4-23.466667 12.8-115.2 155.733333-249.6 292.266667-405.333333 405.333333-8.533333 6.4-12.8 14.933333-12.8 23.466667 0 8.533333 4.266667 19.2 10.666666 23.466666 117.333333 91.733333 294.4 76.8 411.733334-40.533333z" fill="#FFB0CA" p-id="5661"></path><path d="M659.2 608c-68.266667 68.266667-115.2 140.8-134.4 202.666667 83.2 0 168.533333-34.133333 234.666667-100.266667 66.133333-66.133333 100.266667-151.466667 100.266666-234.666667-59.733333 19.2-132.266667 66.133333-200.533333 132.266667z" fill="#FF87AF" p-id="5662"></path><path d="M755.2 298.666667c-115.2 155.733333-249.6 292.266667-405.333333 405.333333-8.533333 6.4-12.8 14.933333-12.8 23.466667 0 8.533333 4.266667 19.2 10.666666 23.466666 6.4 4.266667 12.8 8.533333 17.066667 12.8 46.933333-32 142.933333-102.4 236.8-196.266666 96-96 177.066667-204.8 213.333333-256-4.266667-6.4-8.533333-12.8-12.8-17.066667-6.4-6.4-14.933333-10.666667-23.466666-10.666667-8.533333 2.133333-17.066667 6.4-23.466667 14.933334z" fill="#FFFFFF" p-id="5663"></path></svg>